HIERARCHY
ROOT hip
{
  OFFSET 0 0 0
  CHANNELS 6 Xposition Yposition Zposition Zrotation Yrotation Xrotation
  JOINT abdomen
  {
    OFFSET 0 20.6881 -0.73152
    CHANNELS 3 Zrotation Xrotation Yrotation
    JOINT chest
    {
      OFFSET 0 11.7043 -0.48768
      CHANNELS 3 Zrotation Xrotation Yrotation
      JOINT neck
      {
        OFFSET 0 22.1894 -2.19456
        CHANNELS 3 Zrotation Xrotation Yrotation
        JOINT head
        {
          OFFSET -0.24384 7.07133 1.2192
          CHANNELS 3 Zrotation Xrotation Yrotation
          JOINT leftEye
          {
            OFFSET 4.14528 8.04674 8.04672
            CHANNELS 3 Zrotation Xrotation Yrotation
            End Site
            {
              OFFSET 1 0 0
            }
          }
          JOINT rightEye
          {
            OFFSET -3.6576 8.04674 8.04672
            CHANNELS 3 Zrotation Xrotation Yrotation
            End Site
            {
              OFFSET 1 0 0
            }
          }
        }
      }
      JOINT rCollar
      {
        OFFSET -2.68224 19.2634 -4.8768
        CHANNELS 3 Zrotation Xrotation Yrotation
        JOINT rShldr
        {
          OFFSET -8.77824 -1.95073 1.46304
          CHANNELS 3 Zrotation Xrotation Yrotation
          JOINT rForeArm
          {
            OFFSET -28.1742 -1.7115 0.48768
            CHANNELS 3 Zrotation Xrotation Yrotation
            JOINT rHand
            {
              OFFSET -22.5879 0.773209 7.07136
              CHANNELS 3 Zrotation Xrotation Yrotation
              JOINT rThumb1
              {
                OFFSET -1.2192 -0.487915 3.41376
                CHANNELS 3 Zrotation Xrotation Yrotation
                JOINT rThumb2
                {
                  OFFSET -3.37035 -0.52449 3.41376
                  CHANNELS 3 Zrotation Xrotation Yrotation
                  End Site
                  {
                    OFFSET -1.78271 -1.18214 1.43049
                  }
                }
              }
              JOINT rIndex1
              {
                OFFSET -7.75947 0.938293 5.60832
                CHANNELS 3 Zrotation Xrotation Yrotation
                JOINT rIndex2
                {
                  OFFSET -2.54057 -0.884171 1.56538
                  CHANNELS 3 Zrotation Xrotation Yrotation
                  End Site
                  {
                    OFFSET -1.62519 -0.234802 1.16502
                  }
                }
              }
              JOINT rMid1
              {
                OFFSET -8.24714 1.18213 3.41376
                CHANNELS 3 Zrotation Xrotation Yrotation
                JOINT rMid2
                {
                  OFFSET -3.10165 -0.590103 1.0647
                  CHANNELS 3 Zrotation Xrotation Yrotation
                  End Site
                  {
                    OFFSET -2.48547 -0.328903 0.83742
                  }
                }
              }
              JOINT rRing1
              {
                OFFSET -8.82822 0.546677 1.51678
                CHANNELS 3 Zrotation Xrotation Yrotation
                JOINT rRing2
                {
                  OFFSET -2.60934 -0.819778 -0.0198488
                  CHANNELS 3 Zrotation Xrotation Yrotation
                  End Site
                  {
                    OFFSET -2.33842 -0.294052 0.168128
                  }
                }
              }
              JOINT rPinky1
              {
                OFFSET -8.27202 -0.0477905 -0.4584
                CHANNELS 3 Zrotation Xrotation Yrotation
                JOINT rPinky2
                {
                  OFFSET -1.82734 -0.647385 -0.700984
                  CHANNELS 3 Zrotation Xrotation Yrotation
                  End Site
                  {
                    OFFSET -1.69225 -0.51767 -0.607171
                  }
                }
              }
            }
          }
        }
      }
      JOINT lCollar
      {
        OFFSET 2.68224 19.2634 -4.8768
        CHANNELS 3 Zrotation Xrotation Yrotation
        JOINT lShldr
        {
          OFFSET 8.77824 -1.95073 1.46304
          CHANNELS 3 Zrotation Xrotation Yrotation
          JOINT lForeArm
          {
            OFFSET 28.1742 -1.7115 0.48768
            CHANNELS 3 Zrotation Xrotation Yrotation
            JOINT lHand
            {
              OFFSET 22.5879 0.773209 7.07136
              CHANNELS 3 Zrotation Xrotation Yrotation
              JOINT lThumb1
              {
                OFFSET 1.2192 -0.487915 3.41376
                CHANNELS 3 Zrotation Xrotation Yrotation
                JOINT lThumb2
                {
                  OFFSET 3.37035 -0.52449 3.41376
                  CHANNELS 3 Zrotation Xrotation Yrotation
                  End Site
                  {
                    OFFSET 1.78271 -1.18214 1.43049
                  }
                }
              }
              JOINT lIndex1
              {
                OFFSET 7.75947 0.938293 5.60832
                CHANNELS 3 Zrotation Xrotation Yrotation
                JOINT lIndex2
                {
                  OFFSET 2.54057 -0.884171 1.56538
                  CHANNELS 3 Zrotation Xrotation Yrotation
                  End Site
                  {
                    OFFSET 1.62519 -0.234802 1.16502
                  }
                }
              }
              JOINT lMid1
              {
                OFFSET 8.24714 1.18213 3.41376
                CHANNELS 3 Zrotation Xrotation Yrotation
                JOINT lMid2
                {
                  OFFSET 3.10165 -0.590103 1.0647
                  CHANNELS 3 Zrotation Xrotation Yrotation
                  End Site
                  {
                    OFFSET 2.48547 -0.328903 0.83742
                  }
                }
              }
              JOINT lRing1
              {
                OFFSET 8.82822 0.546677 1.51678
                CHANNELS 3 Zrotation Xrotation Yrotation
                JOINT lRing2
                {
                  OFFSET 2.60934 -0.819778 -0.0198488
                  CHANNELS 3 Zrotation Xrotation Yrotation
                  End Site
                  {
                    OFFSET 2.33842 -0.294052 0.168128
                  }
                }
              }
              JOINT lPinky1
              {
                OFFSET 8.27202 -0.0477905 -0.4584
                CHANNELS 3 Zrotation Xrotation Yrotation
                JOINT lPinky2
                {
                  OFFSET 1.82734 -0.647385 -0.700984
                  CHANNELS 3 Zrotation Xrotation Yrotation
                  End Site
                  {
                    OFFSET 1.69225 -0.51767 -0.607171
                  }
                }
              }
            }
          }
        }
      }
    }
  }
  JOINT rButtock
  {
    OFFSET -8.77824 4.35084 1.2192
    CHANNELS 3 Zrotation Xrotation Yrotation
    JOINT rThigh
    {
      OFFSET 0 -1.70687 -2.19456
      CHANNELS 3 Zrotation Xrotation Yrotation
      JOINT rShin
      {
        OFFSET 0 -36.8199 0.73152
        CHANNELS 3 Zrotation Xrotation Yrotation
        JOINT rFoot
        {
          OFFSET 0.73152 -45.1104 -5.12064
          CHANNELS 3 Zrotation Xrotation Yrotation
          End Site
          {
            OFFSET -1.1221 -3.69964 12.103
          }
        }
      }
    }
  }
  JOINT lButtock
  {
    OFFSET 8.77824 4.35084 1.2192
    CHANNELS 3 Zrotation Xrotation Yrotation
    JOINT lThigh
    {
      OFFSET 0 -1.70687 -2.19456
      CHANNELS 3 Zrotation Xrotation Yrotation
      JOINT lShin
      {
        OFFSET 0 -36.8199 0.73152
        CHANNELS 3 Zrotation Xrotation Yrotation
        JOINT lFoot
        {
          OFFSET -0.73152 -45.1104 -5.12064
          CHANNELS 3 Zrotation Xrotation Yrotation
          End Site
          {
            OFFSET 1.1221 -3.69964 12.103
          }
        }
      }
    }
  }
}
MOTION
Frames:	4
Frame Time:	0.00833333
50.7678 50.8663 18.1952 0.0 0.0 0.0 -1.09222 -0.00411023 -0.0300701 -0.301179 -0.0034665 -0.0521744 -2.54687e-14 0.0 1.73937e-16 -7.65569e-14 3.18055e-15 5.684e-16 -0.0 0.0 0.0 -0.0 0.0 0.0 -1.26249e-14 -6.36732e-17 2.98177e-16 -2.67641e-13 -1.81391e-15 1.78906e-15 -4.60261e-12 1.32868e-12 6.67917e-14 -5.26766e-11 -1.62432e-12 3.27597e-13 -1.24258e-10 -6.37315e-13 8.68291e-13 -2.14612e-10 -1.09729e-12 1.50122e-12 -1.24252e-10 -6.34918e-13 8.52389e-13 7.73091 5.47488 0.417314 -1.24258e-10 -6.37801e-13 8.68291e-13 2.90554 0.965183 0.102902 -1.24251e-10 -6.36707e-13 8.67496e-13 10.2786 0.731801 0.0259123 -1.24262e-10 -6.36509e-13 8.77833e-13 2.22167 -0.733487 -0.20892 -1.28203e-14 -6.28967e-17 -9.93923e-17 -2.68438e-13 -1.6027e-15 9.93923e-16 -4.60346e-12 -1.42171e-12 9.54166e-14 -5.2672e-11 1.13605e-12 3.11694e-13 -1.24245e-10 -6.19415e-13 8.71472e-13 -2.14561e-10 -1.07185e-12 1.51315e-12 -1.24253e-10 -6.15835e-13 8.84194e-13 -7.73091 5.47488 -0.417314 -1.24245e-10 -6.19711e-13 8.68291e-13 -2.90554 0.965183 -0.102902 -1.24246e-10 -6.19314e-13 8.70677e-13 -10.2786 0.731801 -0.0259123 -1.24237e-10 -6.15835e-13 8.6193e-13 -2.22167 -0.733487 0.20892 -2.03217e-16 0.0 -3.88251e-19 -0.322904 -1.92007 -0.0117068 -0.00931378 -2.07855 -0.0769507 -0.50508 3.99668 0.139253 2.03217e-16 0.0 3.88251e-19 -1.34045 -5.66979 0.118158 -0.000495362 4.71367 -0.0319896 0.521848 0.954303 -0.0789899
46.5029 47.9577 10.2154 -84.0786 -84.3598 86.7417 -0.827195 0.500076 0.412466 -0.168887 -2.5841 0.0631002 -0.441506 -0.535157 -1.21919 1.02918 0.825237 -2.43351 -0.0 0.0 0.0 -0.0 0.0 0.0 3.86246e-14 4.62293e-13 -4.94943e-15 0.957554 8.66389 0.0926811 -4.52933 -2.12354 7.00188 0.0197856 -3.12124 -0.436314 2.41025e-10 1.50111e-09 1.07247e-10 4.14175e-10 2.59161e-09 1.8801e-10 2.4103e-10 1.50111e-09 1.07235e-10 7.73091 5.47488 0.417314 2.41025e-10 1.50111e-09 1.07246e-10 2.90554 0.965183 0.102902 2.41033e-10 1.50111e-09 1.07247e-10 10.2786 0.731801 0.0259123 2.41018e-10 1.50111e-09 1.07256e-10 2.22167 -0.733487 -0.20892 3.84928e-14 4.62288e-13 -5.29148e-15 2.44208 9.48751 -0.314576 4.74771 -2.27382 -7.2846 -0.0212363 -3.23357 0.451838 5.11151e-10 -1.68315e-09 -1.15538e-10 8.84074e-10 -2.91673e-09 -1.95475e-10 5.11146e-10 -1.68314e-09 -1.15525e-10 -7.73091 5.47488 -0.417314 5.11152e-10 -1.68315e-09 -1.15537e-10 -2.90554 0.965183 -0.102902 5.11148e-10 -1.68315e-09 -1.15536e-10 -10.2786 0.731801 -0.0259123 5.11158e-10 -1.68314e-09 -1.15542e-10 -2.22167 -0.733487 0.20892 -2.03217e-16 0.0 -3.88251e-19 -5.31781 -13.7615 -13.6554 0.289847 22.6794 0.225252 -0.37227 -4.83436 -1.22864 2.03217e-16 0.0 3.88251e-19 6.51535 -16.635 13.1329 -0.165001 28.6636 -0.330926 0.0658635 -7.51855 -0.597772
46.511 47.9532 10.2105 -83.712 -84.3448 86.419 -0.556613 1.03407 0.878294 -0.0177011 -5.31171 0.18502 -0.936 -1.10152 -2.51121 2.19028 1.68547 -5.01144 -0.0 0.0 0.0 -0.0 0.0 0.0 9.76862e-14 9.90606e-13 -1.17407e-14 1.93453 17.8331 0.199167 -8.75957 -4.26415 14.4375 -0.0113018 -6.42494 -0.902545 6.76352e-10 3.25834e-09 2.1971e-10 1.16377e-09 5.62583e-09 3.85532e-10 6.76356e-10 3.25834e-09 2.19702e-10 7.73091 5.47488 0.417314 6.76353e-10 3.25834e-09 2.19709e-10 2.90554 0.965183 0.102902 6.76362e-10 3.25834e-09 2.19712e-10 10.2786 0.731801 0.0259123 6.76344e-10 3.25834e-09 2.19718e-10 2.22167 -0.733487 -0.20892 9.76231e-14 9.90595e-13 -1.20234e-14 5.14543 19.5188 -0.676313 9.14135 -4.55344 -15.0189 0.0121222 -6.65457 0.93477 1.23615e-09 -3.63423e-09 -2.41821e-10 2.13754e-09 -6.29742e-09 -4.08888e-10 1.23615e-09 -3.63422e-09 -2.41807e-10 -7.73091 5.47488 -0.417314 1.23615e-09 -3.63423e-09 -2.41816e-10 -2.90554 0.965183 -0.102902 1.23615e-09 -3.63422e-09 -2.41817e-10 -10.2786 0.731801 -0.0259123 1.23615e-09 -3.63422e-09 -2.4182e-10 -2.22167 -0.733487 0.20892 -2.03217e-16 0.0 -3.88251e-19 -16.9685 -23.861 -30.0536 0.199269 48.8522 0.773324 -0.700931 -14.1571 -2.74509 2.03217e-16 0.0 3.88251e-19 20.5661 -25.9687 28.898 0.112919 53.9813 -0.958545 -0.591471 -16.4715 -1.19005
46.5171 47.949 10.2084 -83.0787 -84.3313 85.8256 -0.32052 1.5081 1.29794 0.127068 -7.74526 0.296159 -1.39281 -1.60256 -3.65886 3.29738 2.45785 -7.30652 -0.0 0.0 0.0 -0.0 0.0 0.0 1.41124e-13 1.38701e-12 -1.54446e-14 2.78053 25.9914 0.305799 -12.0626 -5.99087 21.1119 -0.0848804 -9.36154 -1.32465 9.7159e-10 4.50461e-09 3.20004e-10 1.67175e-09 7.77702e-09 5.61028e-10 9.71593e-10 4.50461e-09 3.19999e-10 7.73091 5.47488 0.417314 9.71591e-10 4.50461e-09 3.20002e-10 2.90554 0.965183 0.102902 9.716e-10 4.50461e-09 3.20007e-10 10.2786 0.731801 0.0259123 9.7158e-10 4.50461e-09 3.20011e-10 2.22167 -0.733487 -0.20892 1.41119e-13 1.38699e-12 -1.56756e-14 7.67525 28.4588 -1.05877 12.5463 -6.38134 -21.9797 0.0911648 -9.69828 1.37298 1.78194e-09 -5.04821e-09 -3.48356e-10 3.08134e-09 -8.74804e-09 -5.8945e-10 1.78194e-09 -5.0482e-09 -3.48342e-10 -7.73091 5.47488 -0.417314 1.78195e-09 -5.0482e-09 -3.48347e-10 -2.90554 0.965183 -0.102902 1.78194e-09 -5.0482e-09 -3.48351e-10 -10.2786 0.731801 -0.0259123 1.78195e-09 -5.0482e-09 -3.48351e-10 -2.22167 -0.733487 0.20892 -2.03217e-16 0.0 -3.88251e-19 -32.4237 -28.6642 -46.7754 -1.27576 72.1794 2.54066 -1.45003 -22.4434 -4.27498 2.03217e-16 0.0 3.88251e-19 37.6977 -30.5459 44.9628 2.41064 76.5407 -3.47069 -1.34575 -24.4551 -1.77964
